<svg width="10" height="6" viewBox="0 0 10 6" fill="none" xmlns="http://www.w3.org/2000/svg">
<path d="M0.198883 5.65701C0.261752 5.72032 0.336528 5.77057 0.418903 5.80487C0.501278 5.83916 0.589624 5.85681 0.678852 5.85681C0.76808 5.85681 0.856425 5.83916 0.9388 5.80487C1.02118 5.77057 1.09595 5.72032 1.15882 5.65701L5 1.79297L8.84047 5.657C8.9034 5.72034 8.97823 5.77061 9.06067 5.80491C9.1431 5.83921 9.23151 5.85687 9.32079 5.85687C9.41008 5.85687 9.49848 5.83921 9.58092 5.80491C9.66335 5.77061 9.73819 5.72034 9.80112 5.657C9.92852 5.52846 10 5.3548 10 5.17382C10 4.99284 9.92852 4.81918 9.80112 4.69064L5.47997 0.343064L5.46711 0.330922C5.33905 0.208339 5.16799 0.14093 4.99073 0.143201C4.81347 0.145472 4.64419 0.217241 4.51932 0.343064L4.50003 0.357349L0.198883 4.69064C0.0714795 4.81918 -3.77681e-08 4.99284 -2.98571e-08 5.17382C-2.19461e-08 5.3548 0.0714795 5.52846 0.198883 5.65701Z" fill="white"/>
</svg>
