<svg width="14" height="8" viewBox="0 0 14 8" fill="none" xmlns="http://www.w3.org/2000/svg">
<path d="M0.277996 7.72C0.366019 7.80865 0.470712 7.87901 0.586045 7.92702C0.701377 7.97503 0.82507 7.99975 0.949996 7.99975C1.07492 7.99975 1.19862 7.97503 1.31395 7.92702C1.42928 7.87901 1.53397 7.80865 1.622 7.72L7 2.31L12.377 7.72C12.4651 7.80868 12.5699 7.87906 12.6853 7.92708C12.8007 7.97511 12.9245 7.99983 13.0495 7.99983C13.1745 7.99983 13.2983 7.97511 13.4137 7.92708C13.5291 7.87906 13.6339 7.80868 13.722 7.72C13.9004 7.54003 14.0005 7.29689 14.0005 7.0435C14.0005 6.79011 13.9004 6.54697 13.722 6.367L7.672 0.28L7.654 0.263C7.4747 0.0913725 7.2352 -0.00300598 6.98702 0.000173092C6.73884 0.00335264 6.50183 0.103836 6.327 0.28L6.3 0.3L0.277996 6.367C0.0996201 6.54697 -0.000457764 6.79011 -0.000457764 7.0435C-0.000457764 7.29689 0.0996201 7.54003 0.277996 7.72Z" fill="#102746"/>
</svg>
