<svg width="40" height="40" viewBox="0 0 40 40" fill="none" xmlns="http://www.w3.org/2000/svg">
<path d="M40 20.493C39.9962 16.4661 38.8074 12.5294 36.5815 9.17349C34.3557 5.81763 31.1915 3.19108 27.4832 1.62124C23.7748 0.0513954 19.6865 -0.392303 15.7277 0.345448C11.769 1.0832 8.11492 2.96977 5.22101 5.77C4.59266 5.79297 3.99426 6.04434 3.53801 6.477L3.43201 6.569L3.35201 6.646C1.33137 8.64317 0.136794 11.3279 0.00601325 14.166V14.201C-0.0379434 15.3049 0.090946 16.4089 0.388013 17.473C0.412096 17.5854 0.442817 17.6962 0.480013 17.805L0.530013 17.96C0.526982 17.9933 0.526982 18.0267 0.530013 18.06C1.14693 20.0651 1.93482 22.0136 2.88501 23.884C5.67156 29.5281 10.1909 34.1326 15.782 37.024C17.8189 38.0781 19.952 38.935 22.152 39.583H22.194L22.541 39.675H22.641C23.4846 39.8912 24.3521 40.0004 25.223 40H25.598C28.4735 39.9373 31.2153 38.7737 33.258 36.749L33.435 36.572L33.527 36.466C33.9524 36.011 34.2029 35.4201 34.234 34.798C37.9539 30.968 40.0241 25.8322 40 20.493ZM38.585 20.493C38.5924 25.1605 36.88 29.6671 33.775 33.152C33.6757 32.9959 33.5593 32.8514 33.428 32.721L32.311 31.603C33.0066 30.8009 33.6247 29.9347 34.157 29.016C35.6403 26.4469 36.4212 23.5326 36.4212 20.566C36.4212 17.5994 35.6403 14.6851 34.157 12.116C34.1544 12.1045 34.1544 12.0925 34.157 12.081C32.6853 9.48455 30.5523 7.32402 27.975 5.819C25.3964 4.32625 22.4705 3.53804 19.491 3.53348C16.5115 3.52891 13.5832 4.30816 11 5.793C10.0786 6.33225 9.2083 6.9545 8.40001 7.652L7.28001 6.533C7.14958 6.40209 7.00503 6.28605 6.84901 6.187C9.60454 3.75598 13.0028 2.17144 16.6363 1.62338C20.2698 1.07533 23.9843 1.58704 27.3343 3.09715C30.6843 4.60726 33.5275 7.05165 35.5231 10.1372C37.5187 13.2227 38.5818 16.8184 38.585 20.493ZM29.185 35.131C29.0523 35.2634 28.8725 35.3377 28.685 35.3377C28.4975 35.3377 28.3177 35.2634 28.185 35.131L21.968 28.918L22.968 27.918L29.185 34.131C29.2508 34.1966 29.303 34.2745 29.3386 34.3603C29.3742 34.4461 29.3926 34.5381 29.3926 34.631C29.3926 34.7239 29.3742 34.8159 29.3386 34.9017C29.303 34.9875 29.2508 35.0654 29.185 35.131ZM22.678 38.262H22.692H22.678ZM11.106 7.402L11.446 7.989C11.5422 8.14741 11.6965 8.26194 11.8759 8.30813C12.0554 8.35433 12.2458 8.32852 12.4065 8.23623C12.5672 8.14393 12.6855 7.99246 12.736 7.81417C12.7865 7.63588 12.7654 7.44489 12.677 7.282L12.33 6.693C14.3275 5.64744 16.529 5.05022 18.781 4.943V5.65C18.781 5.83764 18.8556 6.0176 18.9882 6.15028C19.1209 6.28296 19.3009 6.3575 19.4885 6.3575C19.6762 6.3575 19.8561 6.28296 19.9888 6.15028C20.1215 6.0176 20.196 5.83764 20.196 5.65V4.943C22.4465 5.0455 24.6478 5.63651 26.647 6.675L26.3 7.262C26.2116 7.42489 26.1905 7.61588 26.241 7.79417C26.2916 7.97246 26.4098 8.12393 26.5705 8.21622C26.7312 8.30852 26.9216 8.33433 27.1011 8.28813C27.2805 8.24194 27.4348 8.12741 27.531 7.969L27.871 7.382C29.7667 8.59097 31.376 10.1986 32.587 12.093L32 12.432C31.9193 12.4784 31.8484 12.5403 31.7916 12.6141C31.7347 12.6879 31.693 12.7722 31.6687 12.8621C31.6444 12.952 31.6381 13.0459 31.65 13.1382C31.662 13.2306 31.6921 13.3197 31.7385 13.4005C31.7849 13.4813 31.8468 13.5521 31.9206 13.6089C31.9944 13.6658 32.0787 13.7076 32.1686 13.7318C32.2585 13.7561 32.3524 13.7624 32.4448 13.7505C32.5371 13.7385 32.6262 13.7084 32.707 13.662L33.294 13.316C34.3458 15.3179 34.9459 17.5261 35.052 19.785H34.345C34.1575 19.785 33.9777 19.8595 33.8451 19.9921C33.7125 20.1247 33.638 20.3045 33.638 20.492C33.638 20.6795 33.7125 20.8593 33.8451 20.9919C33.9777 21.1245 34.1575 21.199 34.345 21.199H35.052C34.9493 23.448 34.358 25.6477 33.319 27.645L32.732 27.299C32.5689 27.2052 32.3752 27.1801 32.1936 27.2292C32.012 27.2782 31.8573 27.3974 31.7635 27.5605C31.6698 27.7236 31.6446 27.9173 31.6937 28.0989C31.7427 28.2805 31.8619 28.4352 32.025 28.529L32.612 28.868C32.228 29.4734 31.8002 30.05 31.332 30.593L26.732 25.999C26.2142 25.5086 25.5282 25.2354 24.815 25.2354C24.1019 25.2354 23.4158 25.5086 22.898 25.999L20.902 27.942C20.3457 28.4928 19.8824 29.13 19.53 29.829C15.763 27.4133 12.5461 24.2325 10.088 20.493C10.8093 20.1312 11.4664 19.6535 12.033 19.079L13.978 17.135C14.485 16.6264 14.7698 15.9376 14.7698 15.2195C14.7698 14.5014 14.485 13.8126 13.978 13.304L9.37801 8.71C9.92227 8.23444 10.499 7.79739 11.104 7.402H11.106ZM4.48601 10.448C4.61874 10.3156 4.79855 10.2413 4.98601 10.2413C5.17348 10.2413 5.35329 10.3156 5.48601 10.448L12.057 17.014L11.057 18.014L4.48601 11.452C4.42022 11.3864 4.36802 11.3085 4.3324 11.2227C4.29678 11.1369 4.27845 11.0449 4.27845 10.952C4.27845 10.8591 4.29678 10.7671 4.3324 10.6813C4.36802 10.5955 4.42022 10.5176 4.48601 10.452V10.448Z" fill="#01815E"/>
<path d="M18.095 21.838H21.589C21.7747 21.838 21.9527 21.7642 22.084 21.633C22.2153 21.5017 22.289 21.3237 22.289 21.138C22.289 20.9523 22.2153 20.7743 22.084 20.643C21.9527 20.5118 21.7747 20.438 21.589 20.438H18.795V17.638H21.595C21.6869 17.638 21.778 17.6199 21.8629 17.5847C21.9478 17.5495 22.025 17.498 22.09 17.433C22.155 17.368 22.2066 17.2908 22.2417 17.2059C22.2769 17.121 22.295 17.0299 22.295 16.938V12.755C22.295 12.6631 22.2769 12.572 22.2417 12.4871C22.2066 12.4022 22.155 12.325 22.09 12.26C22.025 12.195 21.9478 12.1435 21.8629 12.1083C21.778 12.0731 21.6869 12.055 21.595 12.055H18.095C18.0031 12.055 17.9121 12.0731 17.8271 12.1083C17.7422 12.1435 17.665 12.195 17.6 12.26C17.535 12.325 17.4835 12.4022 17.4483 12.4871C17.4131 12.572 17.395 12.6631 17.395 12.755C17.395 12.8469 17.4131 12.938 17.4483 13.0229C17.4835 13.1078 17.535 13.185 17.6 13.25C17.665 13.315 17.7422 13.3665 17.8271 13.4017C17.9121 13.4369 18.0031 13.455 18.095 13.455H20.895V16.255H18.095C17.9094 16.255 17.7313 16.3288 17.6 16.46C17.4688 16.5913 17.395 16.7693 17.395 16.955V21.148C17.3976 21.3319 17.4726 21.5074 17.6035 21.6365C17.7345 21.7656 17.9111 21.838 18.095 21.838Z" fill="#01815E"/>
<path d="M25.181 17.645H27.981V21.139C27.981 21.3247 28.0548 21.5027 28.186 21.634C28.3173 21.7653 28.4954 21.839 28.681 21.839C28.8667 21.839 29.0447 21.7653 29.176 21.634C29.3073 21.5027 29.381 21.3247 29.381 21.139V12.755C29.381 12.5693 29.3073 12.3913 29.176 12.26C29.0447 12.1287 28.8667 12.055 28.681 12.055C28.4954 12.055 28.3173 12.1287 28.186 12.26C28.0548 12.3913 27.981 12.5693 27.981 12.755V16.249H25.881V12.755C25.881 12.5693 25.8073 12.3913 25.676 12.26C25.5447 12.1287 25.3667 12.055 25.181 12.055C24.9954 12.055 24.8173 12.1287 24.686 12.26C24.5548 12.3913 24.481 12.5693 24.481 12.755V16.948C24.4818 17.1331 24.5559 17.3104 24.6871 17.441C24.8183 17.5717 24.9959 17.645 25.181 17.645Z" fill="#01815E"/>
</svg>
